<svg width="75" height="75" viewBox="0 0 75 72" fill="none" xmlns="http://www.w3.org/2000/svg">
<g filter="url(#filter0_dd)">
<path d="M45.2943 35.1949H41.9059V44.0052H47.4968L59.3222 63.6186H70.9782C68.7193 60.2623 63.8626 52.8388 56.4082 41.3481C59.3448 40.0196 61.615 38.1899 63.2188 35.8591C64.8226 33.5051 65.6245 30.8247 65.6245 27.818C65.6245 22.667 64.0094 18.8328 60.7792 16.3156C57.5489 13.7751 52.568 12.5048 45.8365 12.5048H41.9059V21.385H45.091C48.4794 21.385 50.9755 21.8978 52.5793 22.9233C54.2057 23.9489 55.0189 25.6737 55.0189 28.0977C55.0189 30.545 54.2283 32.3397 52.6471 33.4817C51.0658 34.6238 48.6149 35.1949 45.2943 35.1949Z" fill="#F8FFFB"/>
<path d="M20.9306 44.0053H39.0171V35.1826H23.5774C27.1065 23.7584 29.2443 16.5985 29.9908 13.7029L32.1766 6H23.5096L6 55.8141H17.3337L20.9306 44.0053Z" fill="#F8FFFB"/>
</g>
<defs>
<filter id="filter0_dd" x="0" y="0" width="74.9782" height="71.6186" filterUnits="userSpaceOnUse" color-interpolation-filters="sRGB">
<feFlood flood-opacity="0" result="BackgroundImageFix"/>
<feColorMatrix in="SourceAlpha" type="matrix" values="0 0 0 0 0 0 0 0 0 0 0 0 0 0 0 0 0 0 127 0" result="hardAlpha"/>
<feOffset dx="-2" dy="-2"/>
<feGaussianBlur stdDeviation="2"/>
<feComposite in2="hardAlpha" operator="out"/>
<feColorMatrix type="matrix" values="0 0 0 0 0.972549 0 0 0 0 1 0 0 0 0 0.984314 0 0 0 1 0"/>
<feBlend mode="normal" in2="BackgroundImageFix" result="effect1_dropShadow"/>
<feColorMatrix in="SourceAlpha" type="matrix" values="0 0 0 0 0 0 0 0 0 0 0 0 0 0 0 0 0 0 127 0" result="hardAlpha"/>
<feOffset dy="4"/>
<feGaussianBlur stdDeviation="2"/>
<feComposite in2="hardAlpha" operator="out"/>
<feColorMatrix type="matrix" values="0 0 0 0 0 0 0 0 0 0 0 0 0 0 0 0 0 0 0.15 0"/>
<feBlend mode="normal" in2="effect1_dropShadow" result="effect2_dropShadow"/>
<feBlend mode="normal" in="SourceGraphic" in2="effect2_dropShadow" result="shape"/>
</filter>
</defs>
</svg>
